# xmcd
#
# Track frame offsets: 
#        150
#        22489
#        41424
#        64267
#        80622
#        112089
#        144567
#        164391
#        194174
#        216597
#        239211
#
# Disc length: 3526 seconds
#
# Revision: 2
# Processed by: cddbd v1.5.2PL0 Copyright (c) Steve Scherf et al.
# Submitted via: ExactAudioCopyFreeDBPlugin 1.0
#
DISCID=b80dc40b
DTITLE=Gavin DeGraw - Sweeter Live
DYEAR=2012
DGENRE=Pop
TTITLE0=Sweeter
TTITLE1=In Love With A Girl
TTITLE2=Crush
TTITLE3=Soldier
TTITLE4=Candy
TTITLE5=I Don't Want To Be
TTITLE6=Follow Through
TTITLE7=I Need A Dollar - Chemical Party
TTITLE8=Chariot
TTITLE9=Radiation
TTITLE10=Not Over You (with Colbie Caillat)
EXTD=
EXTT0=
EXTT1=
EXTT2=
EXTT3=
EXTT4=
EXTT5=
EXTT6=
EXTT7=
EXTT8=
EXTT9=
EXTT10=
PLAYORDER=
